<svg xmlns="http://www.w3.org/2000/svg" id="svg28" width="900" height="673" version="1.1" viewBox="0 0 238.1 178.1"><g id="g26" transform="rotate(-1 2648.495 2472.705) scale(1.15007)"><path id="path11108" d="M825.336 62.217a19.97 19.97 0 0 0-19.969 19.97 19.97 19.97 0 0 0 19.969 19.97 19.97 19.97 0 0 0 19.969-19.97 19.97 19.97 0 0 0-19.97-19.97ZM544.193 65.05a54.88 54.88 0 0 0-2.535.1c-43.399 3.8-65.647 48.957-61.678 77.14.913 27.367 16.516 49.696 37.532 58.457l-16.451 3.766c1.082 86.911 2.156 173.388-3.79 256.076a223.376 223.376 0 0 0-86.64-33.262c169.982-97.721-.15-282.52-54.713-320.685l6.107-23.579A586.695 586.695 0 0 0 151.98 126.72c-7.909 44.907-15.131 79.37-17.437 121.572l-32.504 5.348c-3.059 23.959-3.51 47.872-2.225 71.756l32.948-4.92c.928 102.996 18.248 198.75 48.496 288.195l96.855-53.848a574.958 574.958 0 0 1-70.355-245.654c26.018-3.497 49.018-5.637 69.418-7.297.879-24.356 3.015-51.341 6.074-75.3-26.026 3.061-52.014 8.297-76.729 11.77.132-17.388 1.087-37.399 2.522-54.81a369.395 369.395 0 0 1 118.244-23.797 757.481 757.481 0 0 0-25.336 216.899l-27.808.486 9.072 71.559 24.44 5.658c2.642 26.902 6.138 52.921 10.07 78.932l64.982-12.436a543.228 543.228 0 0 1-11.736-49.78 139.066 139.066 0 0 1 93.23 87.042l24.121-12.592c-1.945 13.073-3.889 26.148-6.703 39.236l111.041-38.015c-2.863-39.504-3.986-79.037-4.242-118.586a404.598 404.598 0 0 0 83.941 127.627C772.371 433.619 792.365 259.41 776.81 65.393L682.865 111.8a595.384 595.384 0 0 1-13.263 335.783 410.685 410.685 0 0 1-41.045-234.865l-35.45 11.05 1.438-42.185-12.121 2.818a78.227 78.227 0 0 0 20.74-56.867c-2.519-44.566-32.646-62.903-58.97-62.484zM383.39 211.348c31 32.927 94.772 150.474-21.047 163.797-1.436-57.35 5.85-113.112 21.047-163.797z" style="fill:#ff0;stroke:none;stroke-width:17.38342667;stroke-linejoin:round" transform="scale(.2301) rotate(1 10008.163 9335.952)"/><circle id="circle20" cx="164.827" cy="-8.204" r=".8" style="fill:none"/><path id="path826" d="M227.477-22.236a4.595 4.595 0 0 0-4.674 4.515 4.595 4.595 0 0 0 4.514 4.674 4.595 4.595 0 0 0 4.674-4.514 4.595 4.595 0 0 0-4.514-4.675zm-64.693-.477c-.196 0-.39.004-.584.013-10 .7-15.3 11-14.5 17.5.1 6.3 3.6 11.5 8.4 13.6l-3.8.8c-.048 9.679-.099 19.333-.328 28.874l29.75.52A94.49 94.49 0 0 1 181.6 11.6l-8.2 2.4.5-9.7-2.8.6a18 18 0 0 0 5-13c-.4-10.264-7.258-14.603-13.316-14.613zM216.3-21.7l-21.8 10.3a136.994 136.994 0 0 1 2.234 50.255l16.773.293c3.603-18.6 4.15-39.171 2.793-60.848zm-95.5 2.4a135 135 0 0 0-48.5 9.2c-2 10.3-3.8 18.2-4.5 27.9l-7.5 1.1c-.8 5.5-1 11-.8 16.5l7.6-1a222.79 222.79 0 0 0-.008 2.192l17.578.307c-.118-1.597-.21-3.196-.27-4.799 6-.7 11.3-1.1 16-1.4.3-5.6.9-11.8 1.7-17.3-6 .6-12 1.7-17.7 2.4.1-4 .4-8.6.8-12.6a85 85 0 0 1 27.3-5 174.298 174.298 0 0 0-6.486 39.072l14.024.244c.695-9.508 2.441-18.687 5.162-27.216 4.515 4.967 12.022 18.087 9.62 27.474l12.914.226c2.917-21.192-19.502-45.417-28.434-51.9z" style="fill:#06f;stroke:none;stroke-width:4;stroke-linejoin:round"/><circle id="circle4101" cx="228.455" cy="-16.278" r="3.417" style="fill:none;stroke:#000;stroke-width:2.69250751;stroke-opacity:.2"/><circle id="circle14" cx="227.386" cy="-17.617" r="3.417" style="fill:none;stroke:#025;stroke-width:2.69250751;stroke-opacity:1"/><g id="g18" style="line-height:1.25;fill:#025;fill-opacity:1" transform="matrix(1.03558 0 0 1.03558 7.738 .778)"><path id="path16" d="M212-18c.37-.015.409-.158.4-.4.01-.2-.157-.288-.4-.3h-.3v.7zm-.3.5v1h-.7v-2.8h1.1c.514.035.958.196.966.798.007.526-.143.691-.466.802.325.057.396.31.5.5l.4.8h-.8l-.3-.7c-.159-.299-.275-.358-.5-.4z" aria-label="R" font-size="99.3" font-weight="700" letter-spacing="0" style="font-weight:700;font-size:99.30000305px;font-family:sans-serif;-inkscape-font-specification:'sans-serif Bold';letter-spacing:0;word-spacing:0;fill:#025;fill-opacity:1" word-spacing="0"/></g><path id="path4099" d="M127 12.633c7 7.7 21.2 35-5.5 37.6-.1-13.2 1.8-26 5.5-37.6zm37-33c-10 .7-15.3 11-14.5 17.5.1 6.3 3.6 11.5 8.4 13.6l-3.8.8c-.1 20-.2 39.9-1.9 58.9a51.4 51.4 0 0 0-19.8-8c39.5-21.8 1.1-65-11.3-74l1.5-5.4a135 135 0 0 0-48.5 9.2c-2 10.3-3.8 18.2-4.5 27.9l-7.5 1.1c-.8 5.5-1 11-.8 16.5l7.6-1c-.2 23.7 3.4 45.8 10 66.5l22.5-12a132.3 132.3 0 0 1-15.2-56.8c6-.7 11.3-1.1 16-1.4.3-5.6.9-11.8 1.7-17.3-6 .6-12 1.7-17.7 2.4.1-4 .4-8.6.8-12.6a85 85 0 0 1 27.3-5 174.3 174.3 0 0 0-6.7 49.8h-6.4l1.8 16.5 5.6 1.4c.5 6.2 1.2 12.2 2 18.2l15-2.6a125.001 125.001 0 0 1-2.5-11.5 32 32 0 0 1 21.1 20.4l5.6-2.8c-.5 3-1 6-1.7 9l25.7-8.3c-.5-9.1-.6-18.2-.5-27.3a93.1 93.1 0 0 0 18.8 29.7c23.5-27.7 28.8-67.7 26-112.4l-21.8 10.3a137 137 0 0 1-4.4 77.2 94.5 94.5 0 0 1-8.5-54.2l-8.2 2.4.5-9.7-2.8.6a18 18 0 0 0 5-13c-.413-10.595-7.707-14.877-13.9-14.6z" style="fill:none;stroke:#000;stroke-width:4;stroke-linejoin:round;stroke-opacity:.2"/><path id="path24" d="M125.2 10.3c7 7.7 21.2 35-5.5 37.6-.1-13.2 1.8-26 5.5-37.6zm37-33c-10 .7-15.3 11-14.5 17.5.1 6.3 3.6 11.5 8.4 13.6l-3.8.8c-.1 20-.2 39.9-1.9 58.9a51.4 51.4 0 0 0-19.8-8c39.5-21.8 1.1-65-11.3-74l1.5-5.4a135 135 0 0 0-48.5 9.2c-2 10.3-3.8 18.2-4.5 27.9l-7.5 1.1c-.8 5.5-1 11-.8 16.5l7.6-1c-.2 23.7 3.4 45.8 10 66.5l22.5-12a132.3 132.3 0 0 1-15.2-56.8c6-.7 11.3-1.1 16-1.4.3-5.6.9-11.8 1.7-17.3-6 .6-12 1.7-17.7 2.4.1-4 .4-8.6.8-12.6a85 85 0 0 1 27.3-5 174.3 174.3 0 0 0-6.7 49.8h-6.4l1.8 16.5 5.6 1.4c.5 6.2 1.2 12.2 2 18.2l15-2.6a125.001 125.001 0 0 1-2.5-11.5 32 32 0 0 1 21.1 20.4l5.6-2.8c-.5 3-1 6-1.7 9l25.7-8.3c-.5-9.1-.6-18.2-.5-27.3a93.1 93.1 0 0 0 18.8 29.7c23.5-27.7 28.8-67.7 26-112.4l-21.8 10.3a137 137 0 0 1-4.4 77.2 94.5 94.5 0 0 1-8.5-54.2l-8.2 2.4.5-9.7-2.8.6a18 18 0 0 0 5-13c-.414-10.594-7.708-14.877-13.9-14.6z" style="fill:none;stroke:#025;stroke-width:4;stroke-linejoin:round"/></g></svg>