<svg xmlns="http://www.w3.org/2000/svg" xmlns:xlink="http://www.w3.org/1999/xlink" width="900" height="673" viewBox="0 0 238.1 178.1"><defs><linearGradient id="b"><stop offset="0" stop-color="#00f"/><stop offset=".88" stop-color="#00f"/><stop offset=".97" stop-color="#fff"/><stop offset=".98" stop-color="#046dff"/><stop offset="1" stop-color="#00003e"/></linearGradient><linearGradient id="a"><stop offset="0"/><stop offset="1" stop-color="#004"/></linearGradient><linearGradient id="c" x1="462.14" x2="462.14" y1="69.37" y2="592.37" gradientUnits="userSpaceOnUse" xlink:href="#a"/><linearGradient id="e" x1="459.14" x2="459.14" y1="915.83" y2="510.37" gradientTransform="scale(.2301) rotate(1 9983.53 9361.04)" gradientUnits="userSpaceOnUse" xlink:href="#b"/><radialGradient id="f" cx="142.07" cy="569.49" r="254.96" fx="142.07" fy="569.49" gradientTransform="translate(565.6 -108.6)" gradientUnits="userSpaceOnUse" xlink:href="#b"/><filter id="d" color-interpolation-filters="sRGB"><feFlood flood-color="#000" flood-opacity=".5" result="flood"/><feComposite in="flood" in2="SourceGraphic" operator="in" result="composite1"/><feGaussianBlur in="composite1" result="blur" stdDeviation="7"/><feOffset dx="20" dy="20" result="offset"/><feComposite in="SourceGraphic" in2="offset" result="composite2"/></filter></defs><g transform="rotate(-1 2648.5 2472.7) scale(1.15007)"><path fill="url(#c)" d="M825.11 64.5a17.6 17.6 0 0 0-17.6 17.6 17.6 17.6 0 0 0 17.6 17.6 17.6 17.6 0 0 0 17.6-17.6 17.6 17.6 0 0 0-17.6-17.6zm-48.3.46l-93.94 47.28a595.38 595.38 0 0 1-13.26 335.78 410.68 410.68 0 0 1-41.49-235.3l-35.44 11.5 1.86-42.64-12.1 3.26a78.23 78.23 0 0 0 20.73-56.87C602.95 90.6 579 62.32 541.23 65.6v-.43c-43.41 3.36-65.22 48.95-61.68 77.14 1.34 27.36 16.5 49.26 37.95 58.01l-16.44 4.2c.64 86.49 1.72 172.96-4.23 255.65a225.98 225.98 0 0 0-86.2-33.27c169.97-97.72-.16-282.52-54.72-320.68l6.1-23.58c-80.35 3.14-145.74 16.89-210.03 44.09-8.34 44.91-15.13 79.37-17.88 121.14l-32.06 5.78c-3.06 23.96-3.51 47.87-2.23 71.75l32.5-5.34a943.05 943.05 0 0 0 48.5 288.2l97.3-53.43a574.96 574.96 0 0 1-70.8-246.08c26.03-3.06 49.03-5.2 69.43-6.86.44-24.78 3.02-51.34 6.08-75.3-26.04 2.63-52.02 8.3-76.74 11.33.13-17.38 1.1-36.96 2.1-54.36a360.7 360.7 0 0 1 118.67-23.8 757.48 757.48 0 0 0-25.77 216.9l-27.37.48 8.63 71.13 24.45 6.1 10.06 78.49 65.41-12.45c-4.63-16.43-8.84-33.3-11.73-49.77a139.07 139.07 0 0 1 92.8 87.48l24.55-13.03c-1.94 13.07-3.89 26.14-6.7 39.23l110.6-38a2154.07 2154.07 0 0 1-3.8-118.6 404.6 404.6 0 0 0 84.38 128.05C772.37 433.62 791.93 259.42 776.8 64.96zM383.27 211.7c31.11 32.96 94.48 149.72-20.95 163-1.86-57.2 5.82-112.84 20.95-163z" filter="url(#d)" transform="scale(.2301) rotate(1 10008.16 9335.95)"/><circle cx="164.83" cy="-8.2" r=".8" fill="none"/><g style="line-height:1.25"><path fill="red" d="M227.28-17.93c.39-.01.43-.16.42-.41 0-.2-.17-.3-.42-.31h-.3v.72zm-.3.52v1.04h-.73v-2.9h1.14c.53.03.99.2 1 .82 0 .55-.15.72-.49.83.34.06.41.32.52.52l.42.83H228l-.31-.73c-.17-.3-.29-.37-.52-.41z" aria-label="R" font-family="sans-serif" font-size="99.3" font-weight="700" letter-spacing="0" style="-inkscape-font-specification:'sans-serif Bold'" word-spacing="0"/></g><path fill="#fc0" d="M365.88-158.86l-.04 2.14 2.15.04.04-2.15zm-.04 2.14l-2.14-.03-.04 2.14-2.15-.03.04-2.15-2.15-.04-.04 2.15-2.14-.04-.04 2.15-3.52-.06c-.3.52-.56 1.05-.8 1.58l-.05 2.7 2.15.03.04-2.14 2.14.03-.07 4.3 2.14.04-.03 2.14 2.14.04.04-2.15 2.15.04-.04 2.15 2.15.04-.04 2.14 2.15.04.03-2.15-2.14-.03.04-2.15 2.14.04.08-4.3 2.14.04-.03 2.15 2.14.03.08-4.29-4.3-.07.04-2.15-2.15-.04zm-6.66 12.77l-2.15-.03-.04 2.14 2.15.04zm.22-12.88l.03-1.86c-.78.47-1.5 1-2.17 1.6v.22zm58.64-1.12l-.04 2.14-2.14-.03-.04 2.14-2.15-.03-.03 2.14-2.15-.03-.11 6.44 2.14.03.08-4.29 2.15.04-.12 6.44-2.14-.04-.04 2.15 6.44.11.04-2.15-2.15-.03.04-2.15 2.85.05a351.3 351.3 0 0 0-.49-12.9zm-2.18 2.1l.03-1.91-2.16 1.04-.02.84zm11.84-1.93a4.05 4.05 0 0 0-.62 2.07 4.05 4.05 0 0 0 0 .06l1.66.03.04-2.14zm-53.24-.5l-.03 1.71 1.92.04c-.57-.65-1.2-1.23-1.89-1.74zm-49.88.9a186 186 0 0 0-5.98.23l-.03 1.76-2.14-.04-.04 2.15-2.15-.04-.11 6.44 2.15.04.07-4.3 2.15.04-.11 6.44-2.15-.04-.04 2.15 6.44.11.04-2.14-2.15-.04.04-2.15 6.44.11-.04 2.15-2.14-.04-.04 2.15 6.44.11.04-2.14-2.15-.04.04-2.24a57.39 57.39 0 0 0-6.08-5.27zm52 1.1l-.04 1.9-2.15-.04-.18 10.74-2.15-.04-.04 2.14 4.3.08.07-4.3 2.15.04-.04 2.15 1.27.02a18 18 0 0 0 .11-2.39c.02-1.41-.12-2.77-.39-4.05l-3.03-.06.04-2.14 2.38.04a13.66 13.66 0 0 0-2.3-4.09zm-68.73.06c-1.38.17-2.74.36-4.09.57l1.93.03-.04 2.15-2.14-.04.03-2.1c-1.45.22-2.88.46-4.3.73l-.03 1.3-2.14-.04v-.83c-.71.15-1.43.3-2.15.47l-.04 2.47-2.15-.04.04-1.92-2.16.55-.17 9.92 2.14.04.12-6.44 2.14.04-.07 4.29 2.15.04.07-4.3 8.59.15-.08 4.3 2.15.03.07-4.29 2.15.04-.11 6.44 2.15.04.18-10.74-2.14-.04-.04 2.15-2.15-.04zm-2.35 11.34l-2.14-.04-.04 2.15 2.15.03zm122.2-8.6a4.05 4.05 0 0 0 .98 1.06l.02-1.05zm-106.98-1.88l2.15.04-.08 4.3-2.15-.04zm87.02 1.52l-3.32 1.6-.04 2.64-2.15-.04.03-1.55-2.17 1.04v.47l-.95-.01-.86.41a137 137 0 0 1 .7 3.88l1.03.02.03-2.15 2.15.04-.04 2.15 2.15.03.04-2.14 2.14.03.04-2.14 2.15.03.07-4.29zm10.23.18l2.14.04-.07 4.3-2.15-.04zm-58.64 1.13l2.14.03-.03 2.15-2.15-.04zm4.3.07l2.14.04-.04 2.15-2.15-.04zm-75.18.13c-.72.2-1.44.42-2.16.64v.03h-.09c-3.4 1.04-6.77 2.23-10.12 3.58l-.1.53 1.65.03-.04 2.15 2.15.04.04-2.15 4.3.07-.05 2.15 2.15.04.04-2.15 2.15.04zm-2.27 7.1l-.04 2.16 2.15.03.04-2.14zm120.3-2.19l-.07 4.3 2.15.04.07-4.3zm-.07 4.3l-4.3-.08-.03 2.15 4.3.07zm-109.5-1.91l-.03 2.14 2.14.04.04-2.15zm102.46 1.79a137 137 0 0 1 .4 2.15h.16l.04-2.14zm-124.04 4.27l-.03 2.15 2.14.04.04-2.15zm2.11 2.19l-.03 2.14-2.15-.03-.08 4.29 2.15.04-.04 2.14 2.15.04-.04 2.15 2.15.04.04-2.15 2.14.04-.03 2.14 2.14.04.04-2.14 2.15.03-.08 4.3h.17c.05-1.4.12-2.84.2-4.3h-.3l.05-2.14h.39l.3-4.29h-.62l.04-2.15zm10.74.18l2.14.04.04-2.14-2.14-.04zm-.23 12.89l-4.3-.08-.03 2.15 4.3.07zm-10.66-4.49l-2.14-.03-.08 4.3 2.15.03zm-.07 4.3l-.04 2.15 4.3.07.03-2.15zm17.44-14.73l-.04 2.05a83 83 0 0 1 2.16-.66l.02-1.35zm23.61.41l-.04 2.15 2.15.04.04-2.15zm2.11 2.19l-.04 2.14-2.14-.03-.04 2.14-3.84-.06a174.3 174.3 0 0 0-.5 2.08l-.03 2.2 2.15.04.04-2.15 2.14.04-.07 4.3 2.14.03-.03 2.15 2.14.04.04-2.15 2.15.04-.04 2.14 2.15.04.04-2.15 1.56.03c.2-.67.4-1.34.62-2l.04-2.28 2.14.04-.03 2.14 2.14.04.08-4.3-4.3-.07.04-2.15-2.14-.03.03-2.15-2.14-.04-.04 2.15-2.15-.04.04-2.15zm6.44.1l2.15.05.04-2.15-2.15-.04zm-.22 12.9l-.04 2.14h.47l.57-2.13zm-6.44-.12l-2.15-.04-.04 2.15 2.15.04zm15.29-14.77l-.04 2.15 2.15.04.02-1.54-.49-.62zm2.1 2.19l-.03 2.14-2.15-.03-.07 4.29 2.15.04-.04 2.14 2.14.04-.03 2.15 2.14.04.04-2.15 2.15.04-.04 2.14 1.95.04a78.7 78.7 0 0 0-3.98-6.64l-.04 2.27-2.15-.04.08-4.29.7.01a93.93 93.93 0 0 0-1.59-2.17zm-.14 8.58l-2.15-.03-.07 4.3 2.14.03zm-.08 4.3l-.03 2.15 4.29.07.04-2.15zm17.44-14.73l-.04 2.15 2.15.03.04-2.14zm2.11 2.18l-.04 2.15-1.8-.03c1.1 1.3 2.42 2.37 3.9 3.15l.05-3.08 2.15.04-.08 4.29-2.15-.04.01-.53-2.15.5-.12 6.44-.63-.01-.02 2.14 4.91.09.04-2.15-2.15-.04.04-2.14 6.44.1-.04 2.16-2.14-.04-.04 2.14 6.44.12.04-2.15-2.15-.04.11-6.44 2.15.04-.08 4.3 2.15.03.11-6.44-2.14-.04.03-2.14-2.14-.04.03-2.15-2.14-.04.03-2.14-6.44-.12-.03 2.15zm10.73.2l2.15.03.04-2.15-2.15-.04zm36.54-1.52l-.04 2.15-2.14-.04-.12 6.44h-.52a137 137 0 0 1 .43 5.45l.02-1.15 4.3.07-.05 2.15 2.15.04.04-2.15 2.15.04-.04 2.14 2.15.04.03-2.15 4.3.08-.04 2.14 2.15.04.03-2.14 1.32.02c.21-3.53.35-7.1.41-10.73l-1.54-.03-.11 6.44-2.15-.04.11-6.44-2.14-.03.03-2.15-2.14-.04-.04 2.15-6.44-.11.04-2.15zm-124.6 2.12l2.15.04-.08 4.3-2.14-.04zm4.3.08l2.14.03-.07 4.3-2.15-.04zm79.43 1.38l2.15.04-.08 4.3-2.14-.04zm-42.97 1.4l2.14.04-.03 2.14-2.15-.03zm53.67.94l-.19 10.73 2.15.04.11-6.44 1.19.02.13-2.15-1.28-.02.04-2.14zm30.06.52l2.14.04-.03 2.15-2.15-.04zm8.59.15l2.14.04-.04 2.15-2.14-.04zm-88.03-1.53l2.15.03-.04 2.15-2.15-.04zm60.68 5.28l-.21.07h.2a94.5 94.5 0 0 1 .01-.07zm-4.96 1.51l-2.16.66-.04 2.07 2.15.04zm-.05 2.77l-.04 2.14 2.15.04.04-2.14zm-75.12-2.42c-.72.06-1.44.14-2.15.22l-.02.85 2.15.04zm-4.3.49l-2.16.3v.2l2.14.04zm42.92 1.3l-.03 2.14 4.13.07c-.32-.73-.66-1.45-1-2.17zm75.15 1.3l-.04 2.15 1.09.02.16-2.15zm-122.38-2l-4.3.63-.03 1.3 4.3.08zm-25.88 5.86l-.03 2.14-2.15-.03-.11 6.44-2.15-.04.11-6.44-2.14-.04-.2 10.74 2.16.03-.03 1.78 2.15-.32.02-1.42 4.3.08-.04 2.14 2.15.04.03-2.15 2.15.04-.04 2.15 2.15.04.04-2.15 4.3.07-.05 2.15 2.15.04.04-2.15 2.15.04.18-10.74-2.14-.03-.12 6.44-2.14-.04.1-6.44-2.14-.04.04-2.15-2.15-.03-.03 2.14-6.45-.1.04-2.16zm14.77 15.29l-.04 2.14 2.15.04.04-2.14zm11-14.84l-.04 2.14-2.15-.03-.1 6.44-2.16-.04.04-2.15-2.14-.03-.09 4.64 2.15-.2v-.11l1.11.02c4-.36 7.68-.62 11.03-.84.04-1.07.1-2.17.17-3.26l-1.5-.03.04-2.15 1.61.03c.12-1.43.26-2.86.41-4.29l-1.94-.03-.04 2.15-4.3-.08.04-2.15zm23.61.4l-.03 2.16-2.15-.04-.04 2.15-2.14-.04-.04 2.15-2.15-.04-.11 6.44 2.15.04.07-4.3 2.15.04-.11 6.44-2.15-.04-.04 2.15 6.44.11.04-2.14-2.15-.04.04-2.15 4.23.07c.14-1.43.3-2.86.5-4.28h-.36l.07-4.3.95.02c.25-1.44.53-2.87.83-4.29zm-2.18 2.12l.04-2.15-2.15-.04-.04 2.15zm18.11-1.83c.32.7.62 1.43.9 2.16h.31l.04-2.14zm1.21 2.17l-.01.77c.94 2.6 1.6 5.27 1.8 7.85h.21l-.04 2.15 2.15.04.04-2.15 2.14.04-.03 2.14 2.14.04.04-2.15 2.15.04-.08 4.3 2.15.03.07-4.3-2.14-.03.04-2.15 2.14.04.08-4.3-2.15-.03.04-2.15zm10.74.18l2.14.04.01-.58-.5-1.58-1.61-.02zm-.23 12.88l-4.3-.07-.03 2.15 4.3.07zm8.85-14.87l-.03 2.14 2.14.04.04-2.15zm2.11 2.18l-.04 2.15-2.14-.04-.04 2.15-.57-.01-.04 2.14.57.01-.07 4.3 2.14.04-.03 2.14 2.14.04.04-2.15 2.15.04-.04 2.15 2.15.03.04-2.14 2.14.04.08-4.3 2.14.04-.03 2.15 2.14.03.08-4.29-4.3-.08.04-2.14-2.14-.04.03-2.15-2.14-.03-.04 2.14-2.15-.03.04-2.15zm6.44.11l2.15.04.04-2.15-2.15-.03zm-.22 12.88l-.04 2.15 2.15.04.04-2.15zm-6.44-.1l-2.15-.05-.04 2.15 2.15.04zm15.29-14.77l-.04 2.14 2.15.04.04-2.15zm2.1 2.18l-.03 2.15-2.15-.04-.18 10.73-2.15-.03-.04 2.14 4.3.08.07-4.3 2.15.04-.04 2.15 2.15.04.03-2.15 2.15.04-.04 2.14 2.15.04.04-2.14.87.01a94.5 94.5 0 0 1-.44-4.3l-2.5-.05.03-2.14 2.32.04a94.5 94.5 0 0 1-.01-4.3h-.09l-.03 2.15-6.44-.11.03-2.15zm30.1-1.62l-.04 2.14-4.26-.07a137 137 0 0 1-.58 8.58l6.84.12-.07 4.3 2.14.03.08-4.3 2.15.05-.12 6.44 2.15.03.19-10.73-2.15-.04-.04 2.15-2.14-.04.1-6.44-2.14-.04.04-2.14zm1.89 15.06l-2.15-.03-.04 2.14 2.15.04zm-111.46-12.68l2.15.04-.04 2.15-2.14-.04zm23.62.41l2.15.04-.08 4.3-2.15-.04zm19.32.34l2.15.04-.08 4.3-2.14-.05zm4.3.08l2.14.03-.07 4.3-2.15-.04zm62.26 1.08l2.14.04-.03 2.15-2.15-.04zm-47.27 1.32l2.14.04-.03 2.15-2.15-.04zm-88.03-1.53l2.15.04-.04 2.14-2.15-.04zm8.59.15l2.15.04-.04 2.14-2.15-.04zm31.44.55a174.3 174.3 0 0 0-.85 10.72l1.43.02.18-10.73zm52.3.91l2.14.04-.04 2.14-2.15-.03zm12.87.22l4.3.08-.04 2.15-4.3-.08zm-36.96 7.95c-.12.73-.3 1.45-.54 2.14l2.96.05.04-2.15zm61.73 1.08a137 137 0 0 1-.26 2.14l1.07.02.04-2.15zm-83 5l-.03 2.14 2.14.04.04-2.15zm2.11 2.18l-.04 2.14-2.14-.04-.04 2.15-4.3-.07-.07 4.29 2.15.04.04-2.15 2.14.04-.07 4.3 2.15.03-.04 2.15 2.14.03.04-2.14 2.15.04-.04 2.14 2.15.04.04-2.15 2.14.04.08-4.3 2.14.04-.03 2.15 2.14.04.08-4.3-4.3-.07.04-2.15-.74-.01c-1.2.28-2.52.5-3.96.63v-.7l-1.74-.03.04-2.15zm6.22 12.99l-.04 2.15 2.15.03.04-2.14zm-6.44-.11l-2.15-.04-.04 2.15 2.15.03zm38.9-14.36l-.03 2.15-2.15-.04-.04 2.15-.74-.01a520.7 520.7 0 0 1-.19 4.29l.86.01-.11 6.44-1.1-.01-.14 2.14 5.5.1.03-2.15-2.15-.04.04-2.15 6.44.12-.04 2.14-2.14-.03-.04 2.14 6.44.12.04-2.15-2.15-.04.11-6.44 2.15.04-.08 4.3 2.15.03.11-6.44-2.14-.04.03-2.15-2.14-.03.03-2.15 2.15.04.04-2.15-2.15-.04-.04 2.15-2.14-.04.04-2.14zm-2.18 2.11l.04-2.14-.66-.02-.08 2.15zm-79.4-3.53l-.04 2.15-2.14-.04-.12 6.44-2.14-.04.03-2.15-.93-.01a217 217 0 0 0 .75 10.5l.11-6.2 2.15.05-.08 4.29 2.15.04.07-4.3 8.6.15-.08 4.3 2.14.04.08-4.3 2.15.04-.12 6.44 2.15.04.05-2.83a132.3 132.3 0 0 1-1.62-7.94h-.39l-.04 2.14-2.14-.04.1-6.44-2.14-.03.04-2.15-2.15-.04-.04 2.15-4.29-.08.04-2.14zm8.33 15.18l-2.15-.04-.04 2.15 2.15.03zm-8.6-.15l-.03 2.14 2.15.04.04-2.14zm33.11-14.46a174.3 174.3 0 0 0-.07 2.15l1.54.03.04-2.15zm26.05.46c-.3.3-.6.58-.94.85l-.02 1.28 2.15.04.04-2.15zm11.96.2l-.04 2.15 1.74.03c.15-.3.3-.62.43-.93l.02-1.2zm-.04 2.15l-10.73-.18-.04 2.14-2.15-.04-.07 4.3 2.15.04-.04 2.14 2.14.04-.03 2.15 1.73.03.42-.33.03-1.81 2.02.03c.73-.69 1.42-1.4 2.05-2.1l-1.88-.04.07-4.3 2.15.04-.07 3.99c1.1-1.28 2.05-2.6 2.85-3.94l-.63-.01zm-10.88 8.4l-2.15-.03-.07 4.29 2.14.04zm43.12-9.98l-.03 2.14-2.15-.03-.11 6.44-2.15-.04.11-6.44-2.14-.04-.2 10.74 2.16.03-.04 2.15-2.15-.04-.04 2.15 2.15.04.04-2.15 2.14.04.04-2.15 4.3.08-.04 2.14 2.15.04.03-2.15 2.15.04-.04 2.15 2.15.04.04-2.15 1.92.03a94.5 94.5 0 0 1-1.34-4.32h-.5l.02-1.52a94.5 94.5 0 0 1-1.32-4.95l-5.04-.09.04-2.14zm19.86.34a137 137 0 0 1-.48 2.14l2.06.04.03-2.15zm1.58 2.18l-.04 2.15-2.15-.04-.07 4.3 2.14.03-.03 2.15 2.14.03-.03 2.15 2.14.04.04-2.15 2.15.04-.04 2.15 2.15.03.03-2.14 2.15.03.04-2.14 2.05.03.1-.36.07-3.93-2.15-.04.04-2.14zm10.73.19l2.15.03.04-2.14-2.15-.04zm-.15 8.58l-.07 4.3h.06c.5-1.4.98-2.83 1.44-4.27zm-.07 4.3l-4.3-.08-.04 2.15 3.62.06.71-1.93zm-10.66-4.48l-2.15-.04-.08 4.3 2.15.03zm-.08 4.3l-.04 2.14 4.3.07.04-2.14zm-62.07-11.83l2.14.04-.07 4.3-2.15-.05zm-62.26-1.09l2.14.04-.03 2.15-2.15-.04zm6.44.12l2.14.03-.03 2.15-2.15-.04zm26.32.46a174.3 174.3 0 0 0-.04 1.14h-6.3l.76 7.35h.58l-.04 2.15 2.15.04.03-2.14 2.15.03-.08 4.3 4.3.07.04-2.15-2.15-.03.19-10.74zm48.82.85l2.15.03-.08 4.3-2.15-.04zm4.3.07l2.14.04-.07 4.3-2.15-.04zm40.79.71l2.14.04-.07 4.3-2.15-.04zm4.29.08l2.15.04-.08 4.29-2.15-.04zm-103.1.35l4.3.07-.03 2.15-4.3-.08zm15.04.26l2.14.04-.03 2.14-2.15-.03zm4.3.07l2.14.04-.04 2.15-2.15-.04zm55.81.98l2.15.04-.04 2.14-2.15-.03zm17.07 6.66a137 137 0 0 1-.03.08h.02zm-.7 2.21a137 137 0 0 1-.68 2.14l1.3.02.04-2.14zm-59.46-1.03v.65l.99-.64z"/><path fill="red" d="M162.1-20.88l-.04 2.14 2.15.04.04-2.15zm-.04 2.14l-2.14-.03-.04 2.14-2.15-.04.04-2.14-2.15-.04-.04 2.15-2.14-.04-.04 2.15-3.52-.06c-.3.52-.56 1.05-.8 1.58l-.05 2.7 2.15.03.03-2.14 2.15.03-.07 4.3 2.14.03-.03 2.15 2.14.04.04-2.15 2.15.04-.04 2.15 2.15.03-.04 2.15 2.15.04.03-2.15-2.14-.04.04-2.14 2.14.04.08-4.3 2.14.04-.03 2.15 2.14.03.08-4.3-4.3-.07.04-2.14-2.15-.04zM155.4-5.97L153.25-6l-.04 2.15 2.15.04zm.22-12.88l.03-1.86c-.78.47-1.5 1-2.17 1.6v.22zm58.64-1.12l-.04 2.14-2.14-.03-.04 2.14-2.15-.03-.03 2.14-2.15-.03-.11 6.44 2.14.03.08-4.3 2.15.05-.12 6.44-2.14-.04-.04 2.15 6.44.11.04-2.15-2.15-.03.04-2.15 2.85.05c-.08-4.25-.25-8.55-.49-12.9zm-2.18 2.1l.03-1.91-2.16 1.04-.02.84zm11.84-1.93a4.05 4.05 0 0 0-.62 2.07 4.05 4.05 0 0 0 0 .06l1.66.03.04-2.15zm-53.24-.5l-.03 1.71 1.92.04c-.57-.65-1.2-1.23-1.89-1.74zm-49.88.9c-2.03.04-4.02.12-5.98.23l-.03 1.76-2.15-.04-.03 2.15-2.15-.04-.11 6.44 2.15.04.07-4.3 2.15.04-.11 6.44-2.15-.04-.04 2.15 6.44.11.04-2.14-2.15-.04.04-2.15 6.44.11-.04 2.15-2.14-.04-.04 2.15 6.44.11.04-2.14-2.15-.04.04-2.24A57.39 57.39 0 0 0 119.3-14zm52 1.1l-.04 1.9-2.15-.04-.18 10.73-2.15-.03-.04 2.14 4.3.08.07-4.3 2.15.04-.04 2.15 1.27.02A18 18 0 0 0 176.1-8c.02-1.41-.12-2.77-.39-4.06l-3.03-.05.04-2.15 2.38.05a13.66 13.66 0 0 0-2.3-4.09zm-68.73.06c-1.38.17-2.74.36-4.09.57l1.93.03-.04 2.15-2.14-.04.03-2.11c-1.45.23-2.88.47-4.3.74l-.03 1.3-2.15-.04.02-.83c-.72.15-1.44.3-2.16.47l-.04 2.47-2.15-.04.04-1.92-2.16.55-.17 9.92 2.14.04.12-6.44 2.14.03-.07 4.3 2.14.04.08-4.3 8.59.15-.08 4.3 2.15.03.07-4.3 2.15.05-.11 6.44 2.15.03.18-10.73-2.14-.04-.04 2.15-2.15-.04zM101.72-6.9l-2.14-.04-.04 2.14 2.15.04zm122.2-8.61a4.05 4.05 0 0 0 .98 1.07l.02-1.05zm-106.98-1.87l2.15.04-.08 4.3-2.15-.04zm87.02 1.52l-3.32 1.6-.05 2.64-2.14-.04.03-1.55-2.17 1.04v.47l-.95-.01-.86.41a137 137 0 0 1 .7 3.88l1.03.02.03-2.15 2.15.04-.04 2.14 2.15.04.04-2.14 2.14.03.04-2.14 2.15.03.07-4.29zm10.23.18l2.14.04-.07 4.3-2.15-.05zm-58.64 1.12l2.14.04-.03 2.15-2.15-.04zm4.29.08l2.15.04-.04 2.14-2.15-.03zm-75.17.13c-.72.2-1.44.42-2.16.64v.03h-.09c-3.4 1.04-6.77 2.23-10.12 3.58l-.1.53 1.65.03-.04 2.15 2.15.03L76-9.5l4.3.07-.05 2.15 2.15.04.04-2.15 2.14.04zM202.7-9.44l-.07 4.3 2.15.03.07-4.29zm-.07 4.3l-4.3-.08-.03 2.15 4.3.07zM82.4-7.24l-.04 2.14 2.15.04.04-2.14zm10.74.19l-.04 2.14 2.14.04.04-2.15zm102.45 1.78a137 137 0 0 1 .4 2.16h.16l.04-2.15z"/><path fill="#fc0" d="M71.33-.82l-.04 2.15 2.15.04.03-2.15zm2.1 2.19L73.4 3.5l-2.15-.03-.07 4.29 2.14.04-.03 2.14 2.14.04-.03 2.15 2.14.04.04-2.15 2.15.04-.04 2.14 2.15.04.03-2.15 2.15.04.04-2.14h.4l.29-4.29h-.62l.04-2.16zm10.6 8.77l-.08 4.3h.17c.05-1.4.12-2.84.2-4.3zm-.08 4.3l-4.3-.08-.04 2.15 4.3.07zM73.29 9.95l-2.15-.03-.08 4.3 2.15.03zm-.08 4.3l-.04 2.15 4.3.07.04-2.15zm11-14.84l-.04 2.14 2.15.04.04-2.15zm6.44.1l-.04 2.06a83 83 0 0 1 2.16-.66l.03-1.35zm23.62.42l-.04 2.15 2.15.04.03-2.15zm2.1 2.19l-.03 2.14-2.15-.03-.04 2.14-3.84-.06a174.3 174.3 0 0 0-.49 2.08l-.04 2.2 2.15.04.04-2.15 2.15.04-.08 4.3 2.15.03-.04 2.15 2.15.04.03-2.15 2.15.04-.04 2.14 2.15.04-.04 2.15h.48l.56-2.13-1-.02.04-2.15 1.57.03.61-2 .04-2.28 2.15.04-.04 2.14 2.15.04.07-4.3-4.3-.07.05-2.15-2.15-.03.04-2.15-2.15-.04-.04 2.15-2.15-.04.04-2.15zM116.16 15l-2.15-.04-.03 2.15 2.14.03zm6.7-14.92l-.03 2.15 2.14.04.04-2.15zm8.6.15l-.05 2.15 2.15.04.03-1.54-.5-.62zm2.1 2.19l-.04 2.14-2.14-.03-.08 4.29 2.15.04-.04 2.14 2.15.04-.04 2.15 2.15.04.03-2.15 2.15.04-.04 2.14 1.95.04a78.66 78.66 0 0 0-3.98-6.64l-.04 2.27-2.14-.04.07-4.29.7.01a94.08 94.08 0 0 0-1.59-2.17zM133.4 11l-2.15-.03-.07 4.29 2.15.04zm-.07 4.3l-.04 2.14 4.3.08.03-2.15zM150.76.57l-.03 2.15 2.14.03.04-2.14zm2.11 2.18l-.03 2.15-1.81-.03c1.1 1.3 2.42 2.37 3.9 3.15l.05-3.08 2.15.04-.08 4.29-2.14-.04V8.7l-2.15.5-.11 6.43H152l-.02 2.14 4.91.09.04-2.15-2.14-.04.03-2.14 6.44.1-.03 2.15-2.15-.03-.04 2.14 6.44.12.04-2.15-2.15-.04.11-6.44 2.15.04-.07 4.3 2.14.03.12-6.44-2.15-.04.04-2.14-2.15-.04.04-2.15-2.15-.04.04-2.14-6.44-.12-.04 2.15zM163.65.8l-.04 2.15 2.14.04.04-2.15zm36.5.64l-.04 2.15-2.15-.04-.11 6.44h-.53a137 137 0 0 1 .43 5.45l.02-1.15 4.3.07-.04 2.15 2.14.03.04-2.14 2.15.04-.04 2.14 2.15.04.04-2.15 4.29.08-.04 2.14 2.15.04.04-2.14 1.31.02c.22-3.53.35-7.1.42-10.73l-1.55-.03-.1 6.44-2.15-.04.1-6.44-2.14-.03.04-2.15-2.15-.04-.04 2.15-6.44-.11.04-2.15zM75.54 3.55l2.14.04-.07 4.3-2.15-.05zm4.29.08l2.15.03-.08 4.3-2.15-.04zM159.28 5l2.14.04-.07 4.3-2.15-.04zm-42.98 1.4l2.15.04-.04 2.14-2.15-.03zm53.67.94l-.18 10.73 2.14.04.12-6.44 1.18.02.13-2.15-1.28-.02.04-2.15zm30.06.52l2.15.04-.04 2.15-2.15-.04zm8.59.15l2.15.04-.04 2.15-2.15-.04zM120.59 6.5l2.15.03-.04 2.15-2.14-.04zm60.68 5.28l-.2.07h.2a94.5 94.5 0 0 1 0-.07zm-4.96 1.51l-2.16.66-.03 2.07 2.14.04zm-.05 2.77l-.03 2.14 2.14.04.04-2.15zm-75.12-2.42c-.72.06-1.43.14-2.15.22l-.02.85 2.15.04zm-4.3.49l-2.16.3v.2l2.15.04zm42.93 1.29l-.04 2.15 4.13.07c-.32-.73-.65-1.45-1-2.17zm75.14 1.31l-.04 2.15 1.1.02.15-2.15zm-122.38-2l-4.3.63-.03 1.3 4.3.08z"/><path fill="#0f0" d="M66.88 20.4l-.03 2.15-2.15-.03-.11 6.44-2.15-.04.11-6.44-2.14-.04-.2 10.73 2.16.04-.03 1.77 2.15-.31.02-1.42 4.3.07-.04 2.15 2.15.04.03-2.15 2.15.04-.04 2.15 2.15.03.04-2.14 4.3.07-.05 2.15 2.15.04.04-2.15 2.15.04.18-10.74-2.14-.04-.12 6.45-2.14-.04.1-6.44-2.14-.04.04-2.15-2.15-.03-.03 2.14-6.45-.11.04-2.15zm14.77 15.3l-.04 2.14 2.15.04.04-2.15zm11-14.84L92.6 23l-2.15-.04-.1 6.45-2.16-.04.04-2.15-2.15-.04-.08 4.65 2.15-.2v-.11l1.11.01c4-.35 7.68-.62 11.03-.83.04-1.08.1-2.17.17-3.27l-1.5-.02.04-2.15 1.61.03c.12-1.43.26-2.86.41-4.29l-1.94-.03-.04 2.14-4.3-.07.04-2.15zm23.61.4l-.03 2.15-2.15-.03-.04 2.14-2.14-.03-.04 2.14-2.15-.03-.11 6.44 2.15.03.07-4.29 2.15.04-.11 6.44-2.15-.04-.04 2.15 6.44.11.04-2.15-2.15-.03.04-2.15 4.23.07c.14-1.44.3-2.86.5-4.28h-.36l.07-4.3.95.01c.25-1.44.53-2.86.83-4.28zm-2.18 2.12l.04-2.15-2.15-.04-.04 2.15zm18.11-1.83c.32.7.62 1.43.9 2.16h.31l.04-2.14zm1.21 2.16l-.01.78c.94 2.6 1.6 5.27 1.8 7.85h.2l-.03 2.15 2.15.03.04-2.14 2.14.03-.03 2.15 2.14.04.04-2.15 2.15.04-.08 4.3 2.15.03.07-4.3-2.14-.03.03-2.15 2.15.04.08-4.3-2.15-.03.04-2.15zm10.74.2l2.14.03.01-.58-.51-1.58-1.6-.03zm-.23 12.87l-4.3-.07-.03 2.15 4.3.07zm8.85-14.88l-.04 2.15 2.15.04.04-2.15zm2.11 2.19l-.04 2.15-2.14-.04-.04 2.15-.57-.01-.04 2.14.57.01-.07 4.3 2.14.03-.03 2.15 2.14.04.04-2.15 2.15.04-.04 2.15 2.15.03.04-2.14 2.14.03.08-4.29 2.14.04-.03 2.14 2.14.04.08-4.3-4.3-.07.04-2.14-2.14-.04.03-2.15-2.14-.04-.04 2.15-2.15-.04.04-2.14zm6.44.11l2.15.04.04-2.15-2.15-.04zm-.22 12.88l-.04 2.15 2.15.04.04-2.15zm-6.44-.1l-2.15-.05-.04 2.15 2.15.04zm15.29-14.78l-.04 2.15 2.15.04.04-2.15zm2.1 2.19l-.03 2.15-2.15-.04-.18 10.73-2.15-.03-.04 2.14 4.3.08.07-4.3 2.15.04-.04 2.15 2.15.04.03-2.15 2.15.04-.04 2.14 2.15.04.04-2.15.87.02a94.5 94.5 0 0 1-.44-4.3l-2.5-.05.03-2.14 2.32.04a94.5 94.5 0 0 1-.01-4.3h-.09l-.03 2.15-6.44-.12.03-2.14zm30.1-1.62l-.04 2.14-4.26-.07a137 137 0 0 1-.58 8.58l6.84.12-.07 4.3 2.14.03.08-4.3 2.15.04-.12 6.44 2.15.04.19-10.73-2.15-.04-.04 2.15-2.14-.04.1-6.44-2.14-.04.04-2.15zm1.89 15.06l-2.15-.03-.04 2.14 2.15.04zM92.57 25.15l2.15.04-.04 2.14-2.14-.03zm23.62.41l2.15.04-.08 4.3-2.15-.04zm19.32.34l2.15.04-.08 4.29-2.14-.04zm4.3.07l2.14.04-.07 4.3-2.15-.04zm62.26 1.1l2.14.03-.03 2.15-2.15-.04zm-47.27 1.31l2.14.04-.03 2.15-2.15-.04zm-88.03-1.53l2.15.03-.04 2.15-2.15-.04zm8.59.15l2.15.03-.04 2.15-2.15-.04zm31.44.55a174.3 174.3 0 0 0-.85 10.72l1.43.02.18-10.73zm52.3.9l2.14.05-.04 2.14-2.15-.04zm12.87.23l4.3.08-.04 2.14-4.3-.07zm-36.96 7.95c-.12.73-.3 1.45-.54 2.14l2.96.05.04-2.15zm61.73 1.08a137 137 0 0 1-.26 2.14l1.07.02.04-2.15z"/><path fill="#00f" d="M113.74 42.7l-.03 2.15 2.14.03.04-2.14zm2.11 2.18l-.04 2.15-2.14-.04-.04 2.15-4.3-.07-.07 4.29 2.15.04.04-2.15 2.14.04-.07 4.3 2.14.03-.03 2.15 2.14.03.04-2.14 2.15.03-.04 2.15 2.15.04.04-2.15 2.14.04.08-4.3 2.14.04-.03 2.15 2.14.04.08-4.3-4.3-.07.04-2.15-.74-.01c-1.21.27-2.52.49-3.96.63v-.7l-1.74-.03.04-2.15zm6.22 13l-.04 2.14 2.15.04.04-2.14zm-6.44-.11l-2.15-.04-.04 2.14 2.15.04zm38.9-14.36l-.03 2.15-2.15-.04-.04 2.15-.74-.01a520.7 520.7 0 0 1-.19 4.29l.86.01-.11 6.44-1.1-.02-.14 2.15 5.5.1.03-2.15-2.15-.04.04-2.15 6.44.12-.04 2.14-2.14-.04-.04 2.15 6.44.11.04-2.14-2.15-.04.11-6.44 2.15.04-.08 4.29 2.15.04.11-6.44-2.14-.04.03-2.15-2.14-.03.03-2.15 2.15.04.04-2.15-2.15-.04-.04 2.15-2.14-.04.04-2.15zm-2.18 2.11l.04-2.15h-.66l-.08 2.14zM72.95 42l-.04 2.14-2.14-.03-.12 6.44-2.14-.04.03-2.15-.93-.01a217 217 0 0 0 .75 10.5l.1-6.2 2.16.04-.08 4.3 2.15.04.07-4.3 8.6.15-.08 4.3 2.14.03.08-4.29 2.15.04-.12 6.44 2.15.04.05-2.83a132.3 132.3 0 0 1-1.62-7.94h-.39l-.04 2.14-2.14-.04.1-6.44-2.14-.04.04-2.14-2.15-.04-.04 2.15-4.29-.08.04-2.14zm8.33 15.18l-2.15-.04-.04 2.15 2.15.03zm-8.6-.15l-.03 2.14 2.15.04.04-2.15zm33.11-14.46a174.3 174.3 0 0 0-.07 2.15l1.54.02.04-2.14zm26.05.46c-.3.3-.6.58-.94.85l-.02 1.28 2.15.03.04-2.14zm11.96.2l-.04 2.15 1.74.03c.15-.3.3-.62.43-.93l.02-1.2zm-.04 2.15l-10.73-.19-.04 2.15-2.15-.04-.07 4.3 2.15.03-.04 2.15 2.14.04-.03 2.15 1.73.03.42-.33.03-1.81 2.02.03c.73-.69 1.42-1.4 2.05-2.11l-1.88-.03.07-4.3 2.15.04-.07 3.99c1.1-1.28 2.05-2.6 2.85-3.94l-.64-.01zm-10.88 8.4l-2.15-.04-.07 4.3 2.14.04zM176 43.8l-.03 2.14-2.15-.03-.11 6.44-2.15-.04.11-6.44-2.14-.04-.2 10.74 2.16.03-.04 2.15-2.15-.04-.04 2.15 2.15.04.04-2.15 2.14.04.04-2.15 4.3.08-.04 2.14 2.15.04.03-2.15 2.15.04-.04 2.15 2.15.03.04-2.14 1.92.03a94.5 94.5 0 0 1-1.35-4.32h-.5l.03-1.53a94.5 94.5 0 0 1-1.32-4.94l-5.04-.09.04-2.15zm19.86.34a137 137 0 0 1-.48 2.14l2.06.04.03-2.15zm1.58 2.18l-.04 2.15-2.15-.04-.07 4.3 2.14.03-.03 2.15 2.14.03-.03 2.15 2.14.04.04-2.15 2.15.04-.04 2.15 2.15.03.03-2.14 2.15.03.04-2.14 2.05.03.1-.36.07-3.93-2.15-.04.04-2.14zm10.73.19l2.15.03.04-2.14-2.15-.04zm-.15 8.58l-.07 4.3h.06c.5-1.4.98-2.83 1.44-4.27zm-.07 4.3l-4.3-.08-.04 2.15 3.62.06.71-1.94zm-10.66-4.48l-2.15-.04-.08 4.3 2.15.03zm-.08 4.29l-.04 2.15 4.3.07.04-2.15zm-62.07-11.82l2.14.04-.07 4.29-2.15-.04zm-62.26-1.09l2.14.04-.03 2.15-2.15-.04zm6.44.11l2.14.04-.03 2.15-2.15-.04zm26.32.46a174.3 174.3 0 0 0-.04 1.15h-6.3l.76 7.35h.58l-.04 2.15 2.15.04.03-2.15 2.15.04-.08 4.3 4.3.07.04-2.15-2.15-.03.19-10.74zm48.82.86l2.15.03-.08 4.3-2.15-.04zm4.3.07l2.14.04-.07 4.3-2.15-.05zm40.79.71l2.14.04-.07 4.3-2.15-.04zm4.29.08l2.15.04-.08 4.29-2.15-.04zm-103.1.35l4.3.07-.03 2.15-4.3-.08zm15.04.26l2.14.04-.03 2.14-2.15-.04zm4.3.07l2.14.04-.04 2.15-2.15-.04zm55.81.98l2.15.03-.04 2.15-2.15-.04zm17.07 6.66a137 137 0 0 1-.03.08h.02zm-.7 2.21a137 137 0 0 1-.68 2.14l1.3.02.04-2.15zm-59.46-1.03v.65l.99-.64z"/><path fill="url(#e)" d="M140.51 69.96a254.96 254.96 0 0 0-18.34.36A32 32 0 0 1 142.3 90.5l5.7-2.9c-.5 3-1 6-1.7 9l25.6-8.3c-.23-5.18-.36-10.43-.4-15.68a254.96 254.96 0 0 0-30.99-2.66zm-19.14.44a254.96 254.96 0 0 0-14.02 1.45l1.35 12.25 15.1-2.6c-.97-3.67-1.83-7.43-2.43-11.1zm56.4 3.28A93.1 93.1 0 0 0 190.4 90.8a92.74 92.74 0 0 0 8.98-12.6 254.96 254.96 0 0 0-21.62-4.52zm-84.8.1a254.96 254.96 0 0 0-21.62 4.53 217 217 0 0 0 5.75 22.59L99.7 89a132.3 132.3 0 0 1-6.74-15.23z"/><circle cx="707.66" cy="460.88" r="254.96" fill="url(#f)" transform="rotate(1)"/><path fill="#fff" d="M75.67 73.46l-.09-3.43-3.43-.21 3.44-.1.2-3.42.1 3.43 3.43.21-3.44.1zM162.87 70.72l-.1-3.43-3.42-.22 3.43-.09.22-3.42.09 3.43 3.42.2-3.43.1zM194.64 76.26l-.1-3.43-3.42-.2 3.43-.1.21-3.43.1 3.43 3.42.22-3.43.09z"/><circle cx="144.25" cy="71.05" r=".54" fill="#ffe680" fill-opacity=".47" transform="rotate(1)"/><circle cx="184.64" cy="62.79" r=".54" fill="#ffe680" transform="rotate(1)"/><circle cx="113.57" cy="64.51" r=".54" fill="#ffe680" fill-opacity=".6" transform="rotate(1)"/><circle cx="76.94" cy="68.5" r=".66" fill="#ffe680" transform="rotate(1)"/><circle cx="121.98" cy="62.98" r=".27" fill="#fff" transform="rotate(1)"/><circle cx="86.59" cy="71.07" r=".27" fill="#fff" transform="rotate(1)"/><circle cx="86.59" cy="71.07" r=".27" fill="#fff" transform="rotate(1)"/><circle cx="81.53" cy="61.41" r=".27" fill="#fff" transform="rotate(1)"/><circle cx="143.19" cy="66.01" r=".27" fill="#fff" transform="rotate(1)"/><circle cx="203.02" cy="63.25" r=".27" fill="#fff" transform="rotate(1)"/><path fill="none" stroke="#000024" stroke-linejoin="round" stroke-width="4" d="M125.2 10.3c2.78 3.05 6.68 9.19 8.72 15.64 1.07 3.38 1.63 6.84 1.25 10-.74 6.03-4.9 10.93-15.47 11.96-.1-13.2 1.8-26 5.5-37.6zm37-33c-10 .7-15.3 11-14.5 17.5.1 6.3 3.6 11.5 8.4 13.6l-3.8.8c-.1 20-.2 39.9-1.9 58.9a51.4 51.4 0 0 0-19.8-8c39.5-21.8 1.1-65-11.3-74l1.5-5.4a135 135 0 0 0-48.5 9.2c-2 10.3-3.8 18.2-4.5 27.9l-7.5 1.1c-.8 5.5-1 11-.8 16.5l7.6-1c-.2 23.7 3.4 45.8 10 66.5l22.5-12a132.3 132.3 0 0 1-15.2-56.8c6-.7 11.3-1.1 16-1.4.3-5.6.9-11.8 1.7-17.3-6 .6-12 1.7-17.7 2.4.1-4 .4-8.6.8-12.6a85 85 0 0 1 27.3-5 174.3 174.3 0 0 0-6.7 49.8h-6.4l1.8 16.5 5.6 1.4c.5 6.2 1.2 12.2 2 18.2l15-2.6a125 125 0 0 1-2.5-11.5 32 32 0 0 1 21.1 20.4l5.6-2.8c-.5 3-1 6-1.7 9l25.7-8.3c-.5-9.1-.6-18.2-.5-27.3a93.1 93.1 0 0 0 18.8 29.7c23.5-27.7 28.8-67.7 26-112.4l-21.8 10.3a137 137 0 0 1-4.4 77.2 94.5 94.5 0 0 1-8.5-54.2l-8.2 2.4.5-9.7-2.8.6a18 18 0 0 0 5-13c.2-8.6-5.3-15.1-14-14.5z"/><path fill-opacity=".33" d="M227.42-21.71a4.05 4.05 0 0 0-4.12 3.98 4.05 4.05 0 0 0 3.98 4.12 4.05 4.05 0 0 0 .06 0 4.05 4.05 0 0 1 4.05-3.84 4.05 4.05 0 0 0 0-.14 4.05 4.05 0 0 0-3.97-4.12zm-11.12-.09l-21.8 10.5a137 137 0 0 1-3.45 74.2 94.5 94.5 0 0 0 3.08 7.26 137 137 0 0 0 4.4-77.2l18.09-8.71c-.1-2-.2-4.02-.32-6.05zm-54.2-.9c-10 .6-15.2 11-14.5 17.5.17 5.34 2.64 9.81 6.37 12.33a16.4 16.4 0 0 1-2.34-8.07c-.7-6.5 4.5-16.9 14.5-17.5v.1c3.09-.21 5.76.48 7.92 1.85-2.32-4.02-6.48-6.49-11.95-6.11zm-41.3 3.3c-18.5.4-33.6 3.3-48.5 9.3C70.2.2 68.5 8.1 67.7 17.7l-7.4 1.2c-.8 5.5-1 11-.8 16.5l3.97-.58c.04-3.89.3-7.77.86-11.66l7.4-1.2c.8-9.6 2.5-17.5 4.6-27.8 13.46-5.42 27.09-8.31 43.24-9.11zm2.74 8.92l-.2.74a58.7 58.7 0 0 1 6.43 5.62 89.66 89.66 0 0 0-6.23-6.36zm-7.1 12.94a83 83 0 0 0-5.1.3A174.3 174.3 0 0 0 105.6 48h-6.3l1.7 16.4 3.7.99-1.37-13.13h6.3a174.3 174.3 0 0 1 6.8-49.8zm38.53 6.1l-2.67.64c-.09 8.94-.16 17.88-.36 26.73a29.4 29.4 0 0 1-.17 6.21c-.27 8.75-.71 17.4-1.47 25.86a52 52 0 0 0-12.06-5.93 49.21 49.21 0 0 1-3.6 2.19 52 52 0 0 1 19.7 8c1.7-19 1.8-38.9 2-58.8l3.8-.9a13.27 13.27 0 0 1-5.17-4zm26.53 3.04l-3.83 1.17-.34 5.59 3.64-1.11a94.5 94.5 0 0 1 .53-5.65zM102 13.4c-4.53.38-9.07 1.15-13.47 1.77-.09 1.63-.16 3.25-.2 4.79 4.22-.44 8.6-1.22 13.03-1.79.2-1.62.42-3.22.64-4.77zm27.2 1.24l-.26.84c6.31 10.05 12.21 27.61-5.18 31.66-.04 1.64-.05 3.27-.03 4.92 26.61-2.6 12.5-29.71 5.48-37.42zM71.04 38.56l-3.82.56A217 217 0 0 0 77 100.8l2.5-1.32a217 217 0 0 1-8.47-60.92zm104.4 26.6l-.03 4.51a93.1 93.1 0 0 0 14.9 21.03l.16-.2a93.1 93.1 0 0 1-15.03-25.34zm-68.47 4.02L108.6 84l3.5-.6-1.47-13.24zm30.08 11.62a32 32 0 0 1 5.16 9.6l1.76-.9a32 32 0 0 0-6.92-8.7zm14.9 10.96l-5.3 2.69c-.13.68-.28 1.37-.44 2.05l5.21-1.69.52-3.05z"/><path fill="none" stroke="#fff" stroke-linecap="round" stroke-linejoin="round" stroke-width="1.3" d="M130.95 18.78c6.1 10.99 8.34 28.08-11.25 29.12m25.48-28.07C140.97 9.17 133.85.29 125.38-8.73M120.8-19.3a135 135 0 0 0-48.5 9.2c-2 10.3-3.8 18.2-4.5 27.9l-7.5 1.1c-.8 5.5-1 11-.8 16.5m8.31 17.03c2.23 24.04 3.68 29.3 9.29 48.47m25-87.5c-5.94.76-7.35 1.06-13.05 1.76M111.33 2.3c-4.01 16.44-5.52 28.95-5.53 45.7h-6.4l1.8 16.5m6.15 7.35c.57 5.55.68 5.99 1.45 12.25M216.3-21.7l-21.8 10.3c5.36 25.61 4.87 45-1.94 69.81M181.5 11.6l-4.2 1.25m-6.62-33.14c-10.2-7.72-23.9 3.47-22.98 15.09.1 6.3 3.6 11.5 8.4 13.6l-3.8.8c-.1 20 .34 34.9-1.36 53.9"/><circle cx="227.34" cy="-17.66" r="3.42" fill="none" stroke="#000024" stroke-width="2.69"/><path fill="none" stroke="#fff" stroke-linecap="round" stroke-width="1.13" d="M229.16-20.55a3.41 3.41 0 1 0-2.95 6.1"/></g></svg>